<svg xmlns="http://www.w3.org/2000/svg" width="14.4" height="8.88" viewBox="0 0 14.4 8.88"><defs><style>.a{fill:#5a5a5a;}</style></defs><path class="a" d="M18.864-10.32,12.84-4.3a1.264,1.264,0,0,1-.852.336,1.1,1.1,0,0,1-.8-.336L5.16-10.32a1.088,1.088,0,0,1-.36-.828,1.088,1.088,0,0,1,.36-.828l.5-.528a1.125,1.125,0,0,1,.828-.336,1.125,1.125,0,0,1,.828.336l3.864,3.84A1.062,1.062,0,0,0,12-8.328a1.14,1.14,0,0,0,.84-.336l3.84-3.84a1.125,1.125,0,0,1,.828-.336,1.125,1.125,0,0,1,.828.336l.528.528a1.125,1.125,0,0,1,.336.828A1.125,1.125,0,0,1,18.864-10.32Z" transform="translate(-4.8 12.84)"/></svg>