<svg xmlns="http://www.w3.org/2000/svg" width="14.4" height="8.88" viewBox="0 0 14.4 8.88"><defs><style>.a{fill:#5a5a5a;}</style></defs><path class="a" d="M18.864-6.48,12.84-12.5a1.125,1.125,0,0,0-.828-.336,1.125,1.125,0,0,0-.828.336L5.16-6.48a1.088,1.088,0,0,0-.36.828,1.088,1.088,0,0,0,.36.828l.5.528a1.125,1.125,0,0,0,.828.336A1.125,1.125,0,0,0,7.32-4.3l3.864-3.84A1.075,1.075,0,0,1,12-8.5a1.151,1.151,0,0,1,.84.36L16.68-4.3a1.125,1.125,0,0,0,.828.336,1.125,1.125,0,0,0,.828-.336l.528-.528a1.125,1.125,0,0,0,.336-.828A1.125,1.125,0,0,0,18.864-6.48Z" transform="translate(-4.8 12.84)"/></svg>