<svg xmlns="http://www.w3.org/2000/svg" width="20.308" height="24" viewBox="0 0 20.308 24"><defs><style>.a{fill:#3c9584;}</style></defs><path class="a" d="M90.212,52.181a8.34,8.34,0,0,1,1.379.258A5.879,5.879,0,0,1,96.072,58.2v7.362l.538.54.449.451H83.248L83.7,66.1l.538-.54V58.2a5.879,5.879,0,0,1,4.481-5.761,10.213,10.213,0,0,1,1.379-.258M90.154,48a1.764,1.764,0,0,0-1.792,1.8v.84a7.778,7.778,0,0,0-5.973,7.56v6.6L80,67.2v1.2h20.308V67.2l-2.389-2.4V58.2a7.778,7.778,0,0,0-5.973-7.56V49.8A1.764,1.764,0,0,0,90.154,48Zm2.389,21.6H87.765a2.389,2.389,0,1,0,4.778,0Z" transform="translate(-80 -48)"/></svg>