<svg xmlns="http://www.w3.org/2000/svg" width="29.614" height="40" fill='none' viewBox="0 0 29.614 40">
    <defs>
        <style>
            .a {
                fill: #3c9584;
            }

            .b {
                fill: #38d430;
            }
        </style>
    </defs>
    <g transform="translate(-305.522 -478.463)">
        <path class="a"
            d="M19.741,40H2.91A2.913,2.913,0,0,1,0,37.089V2.915A2.916,2.916,0,0,1,2.91,0H19.741a2.919,2.919,0,0,1,2.912,2.915V10.4H20.47V4.917H2.182V32.409H20.47V27.236h2.183v9.853A2.915,2.915,0,0,1,19.741,40ZM7.771,34.708v2.187h7.106V34.708ZM17.823,1.824h0a.744.744,0,1,0,.527.218.737.737,0,0,0-.525-.218Zm-10.4.283v.851h7.8l0-.851Z"
            transform="translate(305.522 478.463)" />
        <g transform="translate(316.918 491.366)">
            <g transform="translate(0 0)">
                <path class="b"
                    d="M2.733,16.4V12.752H1.518A1.52,1.52,0,0,1,0,11.234V1.518A1.52,1.52,0,0,1,1.518,0H16.7a1.52,1.52,0,0,1,1.518,1.518v9.716A1.52,1.52,0,0,1,16.7,12.752H6.376L2.734,16.394ZM5.864,5.51h0V7.242h2.38v2.38h1.73V7.242h2.38V5.51H9.974V3.131H8.244V5.51Z" />
            </g>
        </g>
    </g>
</svg>