<svg xmlns="http://www.w3.org/2000/svg" width="81.911" height="63" viewBox="0 0 81.911 63"><defs><style>.a{fill:#67d5d5;}.b{fill:#67abd5;}.c{fill:#fff;}</style></defs><g transform="translate(4.851 -5.033)"><path class="a" d="M18.042,0A18.342,18.342,0,0,1,36.226,22.292a33.238,33.238,0,0,0-.828,7.157v4.658A1.292,1.292,0,0,1,34.106,35.4H29.449a33.234,33.234,0,0,0-7.157.828A18.33,18.33,0,1,1,18.042,0Z" transform="matrix(0.407, 0.914, -0.914, 0.407, 62.151, 17.498)"/><path class="b" d="M22.676,0A22.344,22.344,0,0,0,.524,27.157a40.5,40.5,0,0,1,1.008,8.719V41.55a1.574,1.574,0,0,0,1.574,1.574H8.78A40.5,40.5,0,0,1,17.5,44.133,22.33,22.33,0,1,0,22.676,0Z" transform="translate(-4.851 38.736) rotate(-49)"/><circle class="c" cx="3.458" cy="3.458" r="3.458" transform="translate(12.681 34.245)"/><circle class="c" cx="3.458" cy="3.458" r="3.458" transform="translate(22.462 34.245)"/><circle class="c" cx="3.458" cy="3.458" r="3.458" transform="translate(32.243 34.245)"/></g></svg>