<svg xmlns="http://www.w3.org/2000/svg" width="19.344" height="24" viewBox="0 0 19.344 24"><defs><style>.a{fill:#3c9584;}</style></defs><path class="a" d="M12.552-13.416H17.16v1.1H12.552Zm0,1.824H17.16v1.128H12.552Zm0,1.848H17.16v1.1H12.552ZM6.84-13.416h4.8v4.8H6.84Zm0,5.472H17.16v1.1H6.84Zm0,1.728v1.128H17.16V-6.24H6.84Zm0,1.728H17.16v1.1H6.84ZM20.208-20.4H4.224a1.81,1.81,0,0,0-1.344.564,1.869,1.869,0,0,0-.552,1.356V1.68A1.869,1.869,0,0,0,2.88,3.036,1.81,1.81,0,0,0,4.224,3.6H19.752a1.849,1.849,0,0,0,1.356-.564,1.849,1.849,0,0,0,.564-1.356V-18.936a1.417,1.417,0,0,0-.42-1.044A1.417,1.417,0,0,0,20.208-20.4ZM20.04-7.056V1.68a.287.287,0,0,1-.288.288H4.224a.24.24,0,0,1-.192-.084.3.3,0,0,1-.072-.2V-18.48a.3.3,0,0,1,.072-.2.24.24,0,0,1,.192-.084H15.96a1.375,1.375,0,0,1,.588.156,1.523,1.523,0,0,1,.492.348l.384.432q.48.576.72.84.672.768.984,1.152l.432.5a1.6,1.6,0,0,1,.336.588,2.013,2.013,0,0,1,.144.66Z" transform="translate(-2.328 20.4)"/></svg>