<svg xmlns="http://www.w3.org/2000/svg" width="40" height="39.913" viewBox="0 0 40 39.913"><defs><style>.a{fill:#ea6e2c;}.b{fill:#00a1be;}</style></defs><g transform="translate(0 -0.087)"><path class="a" d="M11.417,20.167H9.75a1.25,1.25,0,0,1,0-2.5h1.667A2.086,2.086,0,0,0,13.5,15.583V7.25a1.25,1.25,0,0,1,2.5,0v8.333A4.587,4.587,0,0,1,11.417,20.167Z" transform="translate(5.667 4)"/><path class="a" d="M14.333,22.084a8.054,8.054,0,0,1-6.91-3.948,1.251,1.251,0,0,1,2.155-1.27,5.521,5.521,0,0,0,9.513,0,1.251,1.251,0,0,1,2.155,1.27A8.063,8.063,0,0,1,14.333,22.084Z" transform="translate(4.834 10.832)"/><path class="b" d="M24.982,29.565H18.9a1.25,1.25,0,0,1,0-2.5h6.08a2.086,2.086,0,0,0,2.083-2.083V18.9a1.25,1.25,0,0,1,2.5,0v6.08A4.588,4.588,0,0,1,24.982,29.565Z" transform="translate(10.435 10.435)"/><path class="b" d="M24.982,17.652H18.9a1.25,1.25,0,1,0,0,2.5h6.08a2.086,2.086,0,0,1,2.083,2.083v6.08a1.25,1.25,0,0,0,2.5,0v-6.08A4.588,4.588,0,0,0,24.982,17.652Z" transform="translate(10.435 -17.565)"/><path class="b" d="M10.663,29.565H4.583A4.588,4.588,0,0,1,0,24.982V18.9a1.25,1.25,0,0,1,2.5,0v6.08a2.086,2.086,0,0,0,2.083,2.083h6.08a1.25,1.25,0,0,1,0,2.5Z" transform="translate(0 10.435)"/><path class="b" d="M10.663,17.652H4.583A4.588,4.588,0,0,0,0,22.235v6.08a1.25,1.25,0,0,0,2.5,0v-6.08a2.086,2.086,0,0,1,2.083-2.083h6.08a1.25,1.25,0,1,0,0-2.5Z" transform="translate(0 -17.565)"/><path class="a" d="M6.25,6A1.25,1.25,0,0,0,5,7.25v2.5a1.25,1.25,0,0,0,2.5,0V7.25A1.25,1.25,0,0,0,6.25,6Z" transform="translate(3.333 4)"/><path class="a" d="M17.75,6A1.25,1.25,0,0,0,16.5,7.25v2.5a1.25,1.25,0,0,0,2.5,0V7.25A1.25,1.25,0,0,0,17.75,6Z" transform="translate(11 4)"/></g></svg>