<svg xmlns="http://www.w3.org/2000/svg" width="13.992" height="21.024" viewBox="0 0 13.992 21.024"><defs><style>.a{fill:#3c9584;}</style></defs><path class="a" d="M18.144-16.32h-2.3v-.288a.585.585,0,0,0-.168-.432.585.585,0,0,0-.432-.168H13.656v-1.08a.6.6,0,0,0-.18-.444.576.576,0,0,0-.42-.18H10.944a.576.576,0,0,0-.42.18.6.6,0,0,0-.18.444v1.08H8.76a.6.6,0,0,0-.42.168.564.564,0,0,0-.18.432v.288h-2.3a.833.833,0,0,0-.612.252.833.833,0,0,0-.252.612v16.7a.846.846,0,0,0,.252.6.814.814,0,0,0,.612.264H18.144a.789.789,0,0,0,.588-.264.846.846,0,0,0,.252-.6v-16.7a.833.833,0,0,0-.252-.612A.806.806,0,0,0,18.144-16.32Zm-6.936-1.92h1.584q.048,0,.048.072v.816h-1.7v-.816A.064.064,0,0,1,11.208-18.24ZM17.88.84a.123.123,0,0,1-.12.12H6.216q-.024,0-.072-.048T6.1.84V-14.928a.115.115,0,0,1,.036-.084.115.115,0,0,1,.084-.036H8.232v.912a.6.6,0,0,0,.168.42.537.537,0,0,0,.408.18h6.36a.564.564,0,0,0,.432-.18.6.6,0,0,0,.168-.42v-.912H17.76a.16.16,0,0,1,.1.036.1.1,0,0,1,.048.084V.84ZM10.8-8.208A10.136,10.136,0,0,0,8.544-6.264L7.7-6.936l-.48.408L8.76-4.968a.021.021,0,0,0,.024.024h.024l.048-.024A7.445,7.445,0,0,1,9.6-6.312,10.378,10.378,0,0,1,10.968-7.9q.048-.048,0-.072.024,0-.06-.12T10.8-8.208ZM16.632-6.96h-4.56a.16.16,0,0,0-.1.036.1.1,0,0,0-.048.084v.528a.138.138,0,0,0,.048.1.138.138,0,0,0,.1.048h4.56a.138.138,0,0,0,.1-.048.138.138,0,0,0,.048-.1V-6.84a.1.1,0,0,0-.048-.084A.16.16,0,0,0,16.632-6.96ZM10.8-11.9a9.944,9.944,0,0,0-1.44,1.08,9.822,9.822,0,0,0-.816.864l-.84-.648q-.024-.024-.264.18t-.216.228L8.76-8.64h.072a.021.021,0,0,0,.024-.024A7.445,7.445,0,0,1,9.6-10.008a10.378,10.378,0,0,1,1.368-1.584q.048,0,0-.072l-.072-.1Q10.824-11.9,10.8-11.9Zm5.832,1.248h-4.56a.16.16,0,0,0-.1.036.1.1,0,0,0-.048.084v.528a.127.127,0,0,0,.144.144h4.56a.127.127,0,0,0,.144-.144v-.528a.1.1,0,0,0-.048-.084A.16.16,0,0,0,16.632-10.656ZM10.8-4.512a9.944,9.944,0,0,0-1.44,1.08,9.823,9.823,0,0,0-.816.864L7.7-3.24a1.529,1.529,0,0,0-.264.2q-.24.2-.216.2L8.76-1.272a.021.021,0,0,0,.024.024h.048q.024,0,.024-.048A6.86,6.86,0,0,1,9.6-2.616,9.039,9.039,0,0,1,10.968-4.2q.048-.048,0-.072l-.072-.12Q10.824-4.512,10.8-4.512Zm5.832,1.224h-4.56a.138.138,0,0,0-.1.048.138.138,0,0,0-.048.1v.528a.138.138,0,0,0,.048.1.138.138,0,0,0,.1.048h4.56a.138.138,0,0,0,.1-.048.138.138,0,0,0,.048-.1v-.528a.138.138,0,0,0-.048-.1A.138.138,0,0,0,16.632-3.288Z" transform="translate(-4.992 18.912)"/></svg>