<svg xmlns="http://www.w3.org/2000/svg" width="44" height="39.913" viewBox="0 0 44 39.913"><defs><style>.a{fill:#fff;}.b{fill:#ea6e2c;}.c{fill:#00a1be;}</style></defs><g transform="translate(-166.539 -510.122)"><rect class="a" width="39.007" height="1.393" rx="0.697" transform="translate(205.546 534.122) rotate(180)"/><g transform="translate(119.921 518.122)"><g transform="translate(72.756 15.912)"><path class="b" d="M310.3,325.888a14.543,14.543,0,0,1-1.093,1.889,7.371,7.371,0,0,0,4.146,4.4,9.607,9.607,0,0,0,1.014-1.2A5.885,5.885,0,0,1,310.3,325.888Z" transform="translate(-309.205 -325.888)"/></g><g transform="translate(60.618 2.935)"><path class="b" d="M76.764,72.593V66.723a6.6,6.6,0,1,0-13.209,0,2.939,2.939,0,0,1-2.935,2.935v1.468a4.408,4.408,0,0,0,4.4-4.4,5.137,5.137,0,0,1,10.274,0v5.871a4.411,4.411,0,0,0,3.407,4.29,9.478,9.478,0,0,0,.56-1.387A2.94,2.94,0,0,1,76.764,72.593Z" transform="translate(-60.619 -60.118)"/></g><g transform="translate(65.077 19.217)"><g transform="translate(0)"><path class="b" d="M160.339,395.982a8.857,8.857,0,0,1-1.285-1.627l-.489-.8-.7.7a14.6,14.6,0,0,1-5.921,3.61,9.514,9.514,0,0,0,1.817.894,16.068,16.068,0,0,0,4.545-2.9,10.4,10.4,0,0,0,2.765,2.572,9.553,9.553,0,0,0,1.462-.853A8.82,8.82,0,0,1,160.339,395.982Z" transform="translate(-151.946 -393.56)"/></g></g><g transform="translate(60.618)"><g transform="translate(0)"><path class="b" d="M70.158,0a9.551,9.551,0,0,0-9.54,9.54v1.468A1.469,1.469,0,0,0,62.086,9.54a8.072,8.072,0,0,1,16.145,0v5.871a1.469,1.469,0,0,0,1.363,1.464A9.573,9.573,0,0,0,79.7,15.46V9.54A9.551,9.551,0,0,0,70.158,0Z" transform="translate(-60.618 0)"/></g></g><g transform="translate(60.618 5.871)"><g transform="translate(0)"><path class="b" d="M70.158,120.235a3.673,3.673,0,0,0-3.669,3.669,5.878,5.878,0,0,1-5.871,5.871v.049a9.573,9.573,0,0,0,.105,1.418,7.334,7.334,0,0,0,7.233-7.337,2.2,2.2,0,0,1,4.4,0A11.76,11.76,0,0,1,62.492,135.5a9.626,9.626,0,0,0,1.135,1.275,13.211,13.211,0,0,0,10.2-12.867A3.673,3.673,0,0,0,70.158,120.235Z" transform="translate(-60.618 -120.235)"/></g></g><g transform="translate(69.167 23.58)"><path class="b" d="M237.928,483.049l-.133-.135a17.492,17.492,0,0,1-2.095,1.369,9.579,9.579,0,0,0,3.352-.245A11.934,11.934,0,0,1,237.928,483.049Z" transform="translate(-235.7 -482.914)"/></g><g transform="translate(61.061 8.806)"><g transform="translate(0)"><path class="b" d="M78.791,180.352a.734.734,0,0,0-.734.734,8.817,8.817,0,0,1-8.363,8.8,9.476,9.476,0,0,0,.584,1.428,10.27,10.27,0,0,0,9.246-10.224A.734.734,0,0,0,78.791,180.352Z" transform="translate(-69.694 -180.352)"/></g></g></g><g transform="translate(0 -0.087)"><path class="c" d="M24.982,29.565H18.9a1.25,1.25,0,0,1,0-2.5h6.08a2.086,2.086,0,0,0,2.083-2.083V18.9a1.25,1.25,0,0,1,2.5,0v6.08A4.588,4.588,0,0,1,24.982,29.565Z" transform="translate(180.974 520.556)"/><path class="c" d="M24.982,17.652H18.9a1.25,1.25,0,1,0,0,2.5h6.08a2.086,2.086,0,0,1,2.083,2.083v6.08a1.25,1.25,0,0,0,2.5,0v-6.08A4.588,4.588,0,0,0,24.982,17.652Z" transform="translate(180.974 492.556)"/><path class="c" d="M10.663,29.565H4.583A4.588,4.588,0,0,1,0,24.982V18.9a1.25,1.25,0,0,1,2.5,0v6.08a2.086,2.086,0,0,0,2.083,2.083h6.08a1.25,1.25,0,0,1,0,2.5Z" transform="translate(170.539 520.556)"/><path class="c" d="M10.663,17.652H4.583A4.588,4.588,0,0,0,0,22.235v6.08a1.25,1.25,0,0,0,2.5,0v-6.08a2.086,2.086,0,0,1,2.083-2.083h6.08a1.25,1.25,0,1,0,0-2.5Z" transform="translate(170.539 492.556)"/></g></g></svg>