<svg xmlns="http://www.w3.org/2000/svg" width="23.041" height="20"  viewBox="0 0 23.041 20"><defs><style></style></defs><g transform="translate(0 -31.016)"><g transform="translate(0 31.016)"><g transform="translate(4.041 1.063)"><path class="a" d="M89.89,99.722l-7.453,6.326.026.051v10.245H97.317V106.1l.026-.051Z" transform="translate(-82.437 -97.417)"/><path class="a" d="M321.539,52.7V57.44l-.154.179-2.279-1.946.051-.077V52.7Z" transform="translate(-307.504 -52.702)"/></g><path class="a" d="M.507,41.4a.461.461,0,0,1-.384-.179.512.512,0,0,1,.051-.717l10.987-9.374a.538.538,0,0,1,.666,0l10.987,9.374a.512.512,0,1,1-.666.768L11.494,32.207.84,41.274A.461.461,0,0,1,.507,41.4Z" transform="translate(0 -31.016)"/></g><g transform="translate(9.01 44.705)"><rect class="a" width="4.994" height="6.311" transform="translate(0 0)"/></g></g></svg>