<svg xmlns="http://www.w3.org/2000/svg" width="26.588" height="40" viewBox="0 0 26.588 40"><defs><style>.a{fill:#3c9584;}.b{fill:#67acd5;}.c{fill:#38d430;}</style></defs><g transform="translate(-85.5)">

<path class="a" d="M110.618,49.31h-6.632v1.176a5.191,5.191,0,0,1-10.383,0V49.31H86.971A1.472,1.472,0,0,0,85.5,50.781V83.972a1.472,1.472,0,0,0,1.471,1.471h23.647a1.472,1.472,0,0,0,1.471-1.471V50.781A1.472,1.472,0,0,0,110.618,49.31ZM92.172,71.432a5.365,5.365,0,0,1,2.963-4.793,4.645,4.645,0,1,1,7.318,0,5.365,5.365,0,0,1,2.963,4.793V74.9a1.176,1.176,0,0,1-1.176,1.176H93.349A1.176,1.176,0,0,1,92.172,74.9Zm13.041,10.452H92.375a1.176,1.176,0,0,1,0-2.353h12.838a1.176,1.176,0,0,1,0,2.353Z" transform="translate(0 -45.443)"/>


<circle class="b" cx="2.293" cy="2.293" r="2.293" transform="translate(96.502 16.044)"/><path class="b" d="M209.108,296.027a3.011,3.011,0,0,0-3.007-3.007h-2.524a3.011,3.011,0,0,0-3.007,3.007v2.29h8.538Z" transform="translate(-106.045 -270.038)"/>
<path class="c" d="M221.648,7.882a2.842,2.842,0,0,0,2.838-2.838V.784A.784.784,0,0,0,223.7,0h-4.108a.784.784,0,0,0-.784.784v4.26A2.842,2.842,0,0,0,221.648,7.882Z" transform="translate(-122.854)"/></g></svg>