<svg xmlns="http://www.w3.org/2000/svg" width="40" height="40" viewBox="0 0 40 40">
    <defs>
        <style>
            .a {
                fill: #3c9584;
            }

            .b {
                fill: #38d430;
            }

            .c {
                fill: #67acd5;
            }

            .d {
                fill: #fff;
            }
        </style>
    </defs>
    <g transform="translate(-0.002 -1)">
        <path class="a"
            d="M96.222,350.946l-10.676,6.841a3.912,3.912,0,0,1-2.076.607H68.491c-3.641,0-4.627-1.869-4.627-1.869v-.2H61.795v-8.276h2.069v.048c1.841-2.807,6.434-2.807,6.434-2.807h.352a5.079,5.079,0,0,1,3.248,1.186,5.026,5.026,0,0,0,3.241,1.2h2.979a2.827,2.827,0,0,1,2.448,1.441l.048.083a2.236,2.236,0,0,1-.269,2.593h1.3a2.116,2.116,0,0,0,.717-.117l10.538-3.7a1.585,1.585,0,0,1,.51-.083,1.536,1.536,0,0,1,1.241.655,1.715,1.715,0,0,1-.434,2.4Z"
            transform="translate(-56.966 -317.394)" />
        <path class="b"
            d="M-1268.173-458.482V-462.8a11.759,11.759,0,0,1-4.427-6.452,11.758,11.758,0,0,1,.619-7.8,11.732,11.732,0,0,1,10.7-6.949,11.76,11.76,0,0,1,2.446.258,11.759,11.759,0,0,1,6.67,4.091,11.757,11.757,0,0,1,2.61,7.376,11.667,11.667,0,0,1-.892,4.487,11.664,11.664,0,0,1-2.541,3.8,11.665,11.665,0,0,1-3.8,2.541,11.659,11.659,0,0,1-4.485.893h-.029a11.571,11.571,0,0,1-3.554-.558l-3.315,2.626Zm4.137-8.965v2.759h5.517v-2.759h-1.379v-6.9h-4.138v2.759h1.38v4.138Zm2.759-12.414a1.381,1.381,0,0,0-1.379,1.38,1.38,1.38,0,0,0,1.379,1.379,1.381,1.381,0,0,0,1.38-1.379A1.381,1.381,0,0,0-1261.277-479.861Z"
            transform="translate(1289.554 485)" />
        <path class="c"
            d="M-1266.791-472.965h-5.517a.691.691,0,0,1-.689-.69v-9.655a.69.69,0,0,1,.689-.689h5.517a.691.691,0,0,1,.69.69v9.654A.691.691,0,0,1-1266.791-472.965Zm-3.448-4.142a.689.689,0,0,0-.344.092.691.691,0,0,0-.323.778.692.692,0,0,0,.668.512.724.724,0,0,0,.49-.2.779.779,0,0,0,.145-.228.682.682,0,0,0,.055-.262.723.723,0,0,0-.2-.49A.688.688,0,0,0-1270.24-477.107Z"
            transform="translate(1273 513.276)" />
        <path class="d"
            d="M212.555,422.3a.69.69,0,0,1-.4-1.254l.414-.29a5.643,5.643,0,0,1,3.237-1.033h3.761a.69.69,0,1,1,0,1.379h-3.761a4.271,4.271,0,0,0-2.447.784l-.411.289A.687.687,0,0,1,212.555,422.3Z"
            transform="translate(-195.311 -386.014)" />
    </g>
</svg>