<svg xmlns="http://www.w3.org/2000/svg" width="97.656" height="159.807" viewBox="0 0 97.656 159.807">
  <g id="logo" transform="translate(0)">
    <path id="Path_5906" data-name="Path 5906" d="M-604.1,381.9c-5.9,0-10.7,3.379-10.7,7.539s4.785,7.539,10.7,7.539,10.7-3.379,10.7-7.539S-598.2,381.9-604.1,381.9Zm0,11.563a4.018,4.018,0,0,1-4.023-4.023,4.018,4.018,0,0,1,4.023-4.023,4.018,4.018,0,0,1,4.023,4.023A4.018,4.018,0,0,1-604.1,393.462Z" transform="translate(652.334 -336.876)" fill="#66cb98"/>
    <path id="Path_5907" data-name="Path 5907" d="M-534.764,610.52a1.032,1.032,0,0,0-.254-.02,1.58,1.58,0,0,0-1.582,1.7,2.057,2.057,0,0,0,.2.859,1.506,1.506,0,0,0,1.387.84,1.689,1.689,0,0,0,1.641-1.7A1.666,1.666,0,0,0-534.764,610.52Z" transform="translate(589.449 -520.559)" fill="#66cb98"/>
    <path id="Path_5908" data-name="Path 5908" d="M-536.47,303.877c-3.75.156-6.25,3.418-6.348,3.555a.972.972,0,0,0,.2,1.367.972.972,0,0,0,1.367-.2c.02-.02,2.051-2.676,4.883-2.773,1.8-.059,3.574.879,5.313,2.852a.985.985,0,0,0,1.387.078.985.985,0,0,0,.078-1.387C-531.763,304.971-534.068,303.779-536.47,303.877Z" transform="translate(594.647 -274.209)" fill="#66cb98"/>
    <path id="Path_5909" data-name="Path 5909" d="M-633.579,308.681a.985.985,0,0,0,1.387.078.985.985,0,0,0,.078-1.387c-2.148-2.422-4.453-3.594-6.855-3.5-3.75.156-6.25,3.418-6.348,3.555a.972.972,0,0,0,.2,1.367.972.972,0,0,0,1.367-.2c.02-.02,2.051-2.676,4.883-2.773C-637.115,305.752-635.318,306.728-633.579,308.681Z" transform="translate(676.978 -274.209)" fill="#66cb98"/>
    <path id="Path_5910" data-name="Path 5910" d="M-445.518,610.4a1.58,1.58,0,0,0-1.582,1.7,1.591,1.591,0,0,0,1.582,1.7,1.689,1.689,0,0,0,1.641-1.7A1.7,1.7,0,0,0-445.518,610.4Z" transform="translate(517.546 -520.479)" fill="#66cb98"/>
    <path id="Path_5911" data-name="Path 5911" d="M-490.4,610.4a1.527,1.527,0,0,0-1.27.625A1.843,1.843,0,0,0-492,612.1a1.591,1.591,0,0,0,1.582,1.7,1.691,1.691,0,0,0,1.5-1.016,1.665,1.665,0,0,0,.156-.684A1.715,1.715,0,0,0-490.4,610.4Z" transform="translate(553.618 -520.479)" fill="#66cb98"/>
    <path id="Path_5912" data-name="Path 5912" d="M-707.754,232.646c-.236-44.129-22.271-79.785-49.239-79.648s-48.63,36.03-48.414,80.159,22.29,79.785,49.259,79.648S-707.518,276.774-707.754,232.646Zm-74.871,15.45a1.067,1.067,0,0,1-1.14-.9l-.609-5.17-1.985,4.108a1.336,1.336,0,0,1-1.179.885,1.287,1.287,0,0,1-1.16-.885l-2-4.108-.609,5.17a1.066,1.066,0,0,1-1.14.9,1.052,1.052,0,0,1-.983-1.061l1-8.157a1.031,1.031,0,0,1,.944-.944h.216a.9.9,0,0,1,.963.649l2.772,5.9,2.772-5.9a.919.919,0,0,1,.963-.649h.216a1.031,1.031,0,0,1,.943.944l1,8.157A1.037,1.037,0,0,1-782.625,248.1Zm8.256-5.681-3.479,8.393a1.042,1.042,0,0,1-1.278.57.921.921,0,0,1-.59-1.219l1.14-2.831-2.1-4.914a.894.894,0,0,1,.59-1.2.983.983,0,0,1,1.258.59l1.278,3.322,1.317-3.322a.992.992,0,0,1,1.258-.59A.89.89,0,0,1-774.369,242.415Zm8.177,2.791c-.02,1.985-1.828,2.929-3.617,2.929a3.46,3.46,0,0,1-3.5-2.162.95.95,0,0,1,.57-1.2,1.044,1.044,0,0,1,1.317.511,1.686,1.686,0,0,0,1.612.944c.865,0,1.455-.413,1.474-1.061.02-.452-.2-.845-1.2-1.14l-1.2-.334c-2.2-.688-2.595-1.946-2.595-2.85,0-1.789,1.533-2.988,3.44-2.988a3.228,3.228,0,0,1,3.047,1.671.885.885,0,0,1-.315,1.179.917.917,0,0,1-1.337-.256,1.808,1.808,0,0,0-1.435-.708c-.747,0-1.3.432-1.3,1.042,0,.256.1.747,1.081,1.022l1.2.354C-766.507,242.887-766.172,244.243-766.192,245.206Zm10.713-2.791-1.71,4.894a1.108,1.108,0,0,1-1.061.786h-.079a1.045,1.045,0,0,1-1.022-.786l-1.1-3.617-1.061,3.617a1.045,1.045,0,0,1-1.022.786h-.079a1.126,1.126,0,0,1-1.061-.786l-.688-1.867-1.1-3.027v-.02a.963.963,0,0,1,.609-1.2,1.081,1.081,0,0,1,1,.157.948.948,0,0,1,.295.432l1.022,3.322a.353.353,0,0,1,.138-.1l.629-2.123.275-.9a1.009,1.009,0,0,1,1.042-.806h.118a.988.988,0,0,1,1.022.806l.983,3.3,1.061-3.5a1,1,0,0,1,1.278-.59A1.031,1.031,0,0,1-755.479,242.415Zm8.2,4.776a.97.97,0,0,1-1.022.9,1.01,1.01,0,0,1-1.022-.9v-.138a2.421,2.421,0,0,1-2.044,1.1,3.3,3.3,0,0,1-3.3-3.538,3.681,3.681,0,0,1,.079-.826,3.222,3.222,0,0,1,1.946-2.457,3.631,3.631,0,0,1,1.3-.256,2.551,2.551,0,0,1,2.044,1.1v-.138a1,1,0,0,1,1.022-.9.97.97,0,0,1,1.022.9v5.15Zm8.767,0a.97.97,0,0,1-1.022.9,1.01,1.01,0,0,1-1.022-.9v-.138a2.421,2.421,0,0,1-2.044,1.1,3.3,3.3,0,0,1-3.3-3.538,3.281,3.281,0,0,1,3.3-3.518,2.624,2.624,0,0,1,1.061.256,2.323,2.323,0,0,1,.983.845v-3.833a1,1,0,0,1,1.022-.9.97.97,0,0,1,1.022.9Zm8.806,0a.97.97,0,0,1-1.022.9,1.01,1.01,0,0,1-1.022-.9v-.138a2.42,2.42,0,0,1-2.044,1.1,3.3,3.3,0,0,1-3.3-3.538,3.281,3.281,0,0,1,3.3-3.518,2.551,2.551,0,0,1,2.044,1.1v-3.833a1,1,0,0,1,1.022-.9.97.97,0,0,1,1.022.9Zm3.813-5.956v5.976a.97.97,0,0,1-1.022.9,1.01,1.01,0,0,1-1.022-.9v-8.826a1,1,0,0,1,1.022-.9.97.97,0,0,1,1.022.9Zm-4.855-47.942a26.6,26.6,0,0,1-26.418,23.529,26.6,26.6,0,0,1-26.418-23.529,6.193,6.193,0,0,1-4.855-7.312,6.206,6.206,0,0,1,6.074-4.973h.255a26.593,26.593,0,0,1,21.131-17.081c3.44,2.123,6.84,5.779-.216,9.946,0,0,12.462-1.808,6.762-10.084a26.617,26.617,0,0,1,22.192,17.2h.256A6.208,6.208,0,0,1-725.8,187.2,6.175,6.175,0,0,1-730.752,193.294Zm12.659,51.991h-4.383c.1.786.963,1.12,1.671,1.12a1.821,1.821,0,0,0,1.179-.314.949.949,0,0,1,1.278.1.889.889,0,0,1-.256,1.356,4.256,4.256,0,0,1-2.339.609A3.46,3.46,0,0,1-724.5,244.6a3.5,3.5,0,0,1,.531-1.907,2.871,2.871,0,0,1,.177-.256,3.545,3.545,0,0,1,2.85-1.337,3.42,3.42,0,0,1,3.479,3.558A.633.633,0,0,1-718.093,245.285Z" transform="translate(805.408 -152.998)" fill="#66cb98"/>
  </g>
</svg>
