<svg xmlns="http://www.w3.org/2000/svg" width="19.344" height="24" viewBox="0 0 19.344 24"><defs><style>.a{fill:#3c9584;}</style></defs><path class="a" d="M20.208-20.4H4.224a1.81,1.81,0,0,0-1.344.564,1.869,1.869,0,0,0-.552,1.356V1.68A1.869,1.869,0,0,0,2.88,3.036,1.81,1.81,0,0,0,4.224,3.6H19.752a1.849,1.849,0,0,0,1.356-.564,1.849,1.849,0,0,0,.564-1.356V-18.936a1.417,1.417,0,0,0-.42-1.044A1.417,1.417,0,0,0,20.208-20.4ZM20.04-7.056V1.68a.287.287,0,0,1-.288.288H4.224a.24.24,0,0,1-.192-.084.3.3,0,0,1-.072-.2V-18.48a.3.3,0,0,1,.072-.2.24.24,0,0,1,.192-.084H15.96a1.375,1.375,0,0,1,.588.156,1.523,1.523,0,0,1,.492.348l.384.432q.48.576.72.84.672.768.984,1.152l.432.5a1.6,1.6,0,0,1,.336.588,2.013,2.013,0,0,1,.144.66ZM17.784-7.08A2.373,2.373,0,0,0,16.2-7.44h-.1a16.691,16.691,0,0,0-1.776.12,5.729,5.729,0,0,1-.864-.576,6.243,6.243,0,0,1-1.584-2.448l.072-.24a7.379,7.379,0,0,0,.12-1.128q.048-.672.048-.84v-.1a3.71,3.71,0,0,0,.1-.36,2.135,2.135,0,0,0,0-.456.786.786,0,0,0-.048-.192l-.072-.168a.661.661,0,0,0-.24-.312.644.644,0,0,0-.384-.12H11.3a.9.9,0,0,0-.48.132.539.539,0,0,0-.264.348,3.933,3.933,0,0,0-.024,1.584,17.165,17.165,0,0,0,.456,2.16l-.1.264A19.1,19.1,0,0,1,9.84-7.608l-.024.072q-.648,1.272-.96,1.8l-.312.144-.648.36a5.614,5.614,0,0,0-1.272.96,2.1,2.1,0,0,0-.576.936.5.5,0,0,0,.192.552l.336.168a1.392,1.392,0,0,0,.36.072,1.826,1.826,0,0,0,1.224-.72A12.894,12.894,0,0,0,9.72-5.52a25.182,25.182,0,0,1,4.248-1.008A8.749,8.749,0,0,0,15.6-5.82a4.966,4.966,0,0,0,1.464.276,2.08,2.08,0,0,0,.384-.036.686.686,0,0,0,.384-.276,3.4,3.4,0,0,0,.12-.432v-.528A.555.555,0,0,0,17.784-7.08ZM6.84-3.192a3.58,3.58,0,0,1,.5-.744,4.921,4.921,0,0,1,.912-.912.515.515,0,0,1,.12-.1A5.682,5.682,0,0,1,6.84-3.192ZM11.424-13.68a.267.267,0,0,1,.024-.12q.072.12.24.408a2.233,2.233,0,0,1,.1.768v.072l-.24.984a6.619,6.619,0,0,1-.192-1.44A3.438,3.438,0,0,1,11.424-13.68ZM10.1-6.264q.144-.288.48-.864.552-1.1.864-1.92a6.377,6.377,0,0,0,1.464,1.8A1.43,1.43,0,0,0,13.1-7.1,20.858,20.858,0,0,0,10.1-6.264Zm7.416,0h-.048a.705.705,0,0,1-.168.024A4.967,4.967,0,0,1,15.528-6.7a4.8,4.8,0,0,1,1.656.072,1.071,1.071,0,0,1,.432.216h.024A.683.683,0,0,1,17.52-6.264Z" transform="translate(-2.328 20.4)"/></svg>